<?xml version="1.0" encoding="utf-8"?>
<?xml-stylesheet type="text/xsl" href="rss1.xsl"?>
<rss version="2.0" xmlns:atom="http://www.w3.org/2005/Atom" xmlns:content="http://purl.org/rss/1.0/modules/content/" xmlns:dc="http://purl.org/dc/elements/1.1/" xmlns:media="http://search.yahoo.com/mrss/">
<channel>
 <title>Getty</title>
 <link>http://www.gettyimg.com/</link>
 <atom:link href="http://www.gettyimg.com/" rel="self" type="application/rss+xml" />

 
                <item>
                <title><![CDATA[【HD Live Performances】WEB-RiP - Taylor.Swift.Folklore.The.Long.Pond.Studio.Sessions.2020.2160p.DSNP.WEB-DL.DDP5.1.Atmos.DV.HDR.H.265-FLUX]]></title>
                <link><![CDATA[https://sharemania.us/threads/taylor-swift-folklore-the-long-pond-studio-sessions-2020-2160p-dsnp-web-dl-ddp5-1-atmos-dv-hdr-h-265-flux.229565/]]></link>
                <description><![CDATA[<article>
<blockquote class="messageText SelectQuoteContainer ugc baseHtml">
<img src="https://sumo.cdn.tv2.no/imageapi/v3/img/6266322f498e0d52ca80b32e-1677607823342" class="bbCodeImage LbImage" alt="[​IMG]" data-url="https://sumo.cdn.tv2.no/imageapi/v3/img/6266322f498e0d52ca80b32e-1677607823342" style=""><br>
<br>
<img src="https://i.imgur.com/iffVzen.jpg" class="bbCodeImage LbImage" alt="[​IMG]" data-url="https://i.imgur.com/iffVzen.jpg" style=""><br>
<div style="text-align: center"><br>
<div class="ToggleTriggerAnchor bbCodeSpoilerContainer">
<button type="button" class="button bbCodeSpoilerButton ToggleTrigger Tooltip JsOnly" data-target="> .SpoilerTarget"><span>Spoiler: <span class="SpoilerTitle">MediaInfo</span></span></button>
<div class="SpoilerTarget bbCodeSpoilerText">General<br>
Unique ID : 247846517755306555026450803924707535800 (0xBA7580C5A321536C7380D33A82936BB8)<br>
Complete name : D:\mi\Taylor.Swift.Folklore.The.Long.Pond.St ... DDP5.1.Atmos.DV.HDR.H.265-FLUX\Folklore.The.Long.Pond.Studio.Sessions.2020.2160p.DSNP.WEB-DL.DDP5.1.Atmos.DV.HDR.H.265-FLUX.mkv<br>
Format : Matroska<br>
Format version : Version 4<br>
File size : 12.9 GiB<br>
Duration : 1 h 46 min<br>
Overall bit rate : 17.3 Mb/s<br>
Writing application : mkvmerge v74.0.0 ('You Oughta Know') 64-bit<br>
Writing library : libebml v1.4.4 + libmatroska v1.7.1<br>
<br>
Video<br>
ID : 1<br>
Format : HEVC<br>
Format/Info : High Efficiency Video Coding<br>
Format profile : Main 10@L5@High<br>
HDR format : Dolby Vision, Version 1.0, dvhe.08.06, BL+RPU, HDR10 compatible / SMPTE ST 2086, HDR10 compatible<br>
Codec ID : V_MPEGH/ISO/HEVC<br>
Duration : 1 h 46 min<br>
Bit rate : 16.5 Mb/s<br>
Width : 3 840 pixels<br>
Height : 2 160 pixels<br>
Display aspect ratio : 16:9<br>
Frame rate mode : Constant<br>
Frame rate : 23.976 (24000/1001) FPS<br>
Color space : YUV<br>
Chroma subsampling : 4:2:0<br>
Bit depth : 10 bits<br>
Bits/(Pixel*Frame) : 0.083<br>
Stream size : 12.3 GiB (96%)<br>
Language : English<br>
Default : Yes<br>
Forced : No<br>
Color range : Limited<br>
Color primaries : BT.2020<br>
Transfer characteristics : PQ<br>
Matrix coefficients : BT.2020 non-constant<br>
Mastering display color primaries : BT.2020<br>
Mastering display luminance : min: 0.0001 cd/m2, max: 1000 cd/m2<br>
<br>
Audio<br>
ID : 2<br>
Format : E-AC-3 JOC<br>
Format/Info : Enhanced AC-3 with Joint Object Coding<br>
Commercial name : Dolby Digital Plus with Dolby Atmos<br>
Codec ID : A_EAC3<br>
Duration : 1 h 46 min<br>
Bit rate mode : Constant<br>
Bit rate : 768 kb/s<br>
Channel(s) : 6 channels<br>
Channel layout : L R C LFE Ls Rs<br>
Sampling rate : 48.0 kHz<br>
Frame rate : 31.250 FPS (1536 SPF)<br>
Compression mode : Lossy<br>
Stream size : 585 MiB (4%)<br>
Language : English<br>
Service kind : Complete Main<br>
Default : Yes<br>
Forced : No<br>
Complexity index : 16<br>
Number of dynamic objects : 15<br>
Bed channel count : 1 channel<br>
Bed channel configuration : LFE<br>
<br>
Text #1<br>
ID : 3<br>
Format : UTF-8<br>
Codec ID : S_TEXT/UTF8<br>
Codec ID/Info : UTF-8 Plain Text<br>
Duration : 1 h 45 min<br>
Bit rate : 94 b/s<br>
Frame rate : 0.243 FPS<br>
Count of elements : 1538<br>
Stream size : 73.3 KiB (0%)<br>
Language : English<br>
Default : No<br>
Forced : No<br>
<br>
Text #2<br>
ID : 4<br>
Format : UTF-8<br>
Codec ID : S_TEXT/UTF8<br>
Codec ID/Info : UTF-8 Plain Text<br>
Duration : 1 h 46 min<br>
Bit rate : 94 b/s<br>
Frame rate : 0.243 FPS<br>
Count of elements : 1549<br>
Stream size : 73.9 KiB (0%)<br>
Title : SDH<br>
Language : English<br>
Default : No<br>
Forced : No<br>
<br>
Text #3<br>
ID : 5<br>
Format : UTF-8<br>
Codec ID : S_TEXT/UTF8<br>
Codec ID/Info : UTF-8 Plain Text<br>
Duration : 1 h 45 min<br>
Bit rate : 42 b/s<br>
Frame rate : 0.127 FPS<br>
Count of elements : 806<br>
Stream size : 33.1 KiB (0%)<br>
Language : Czech<br>
Default : No<br>
Forced : No<br>
<br>
Text #4<br>
ID : 6<br>
Format : UTF-8<br>
Codec ID : S_TEXT/UTF8<br>
Codec ID/Info : UTF-8 Plain Text<br>
Duration : 1 h 45 min<br>
Bit rate : 45 b/s<br>
Frame rate : 0.128 FPS<br>
Count of elements : 814<br>
Stream size : 35.0 KiB (0%)<br>
Language : Danish<br>
Default : No<br>
Forced : No<br>
<br>
Text #5<br>
ID : 7<br>
Format : UTF-8<br>
Codec ID : S_TEXT/UTF8<br>
Codec ID/Info : UTF-8 Plain Text<br>
Duration : 1 h 45 min<br>
Bit rate : 45 b/s<br>
Frame rate : 0.123 FPS<br>
Count of elements : 781<br>
Stream size : 34.9 KiB (0%)<br>
Language : German<br>
Default : No<br>
Forced : No<br>
<br>
Text #6<br>
ID : 8<br>
Format : UTF-8<br>
Codec ID : S_TEXT/UTF8<br>
Codec ID/Info : UTF-8 Plain Text<br>
Duration : 1 h 45 min<br>
Bit rate : 72 b/s<br>
Frame rate : 0.128 FPS<br>
Count of elements : 814<br>
Stream size : 56.5 KiB (0%)<br>
Language : Greek<br>
Default : No<br>
Forced : No<br>
<br>
Text #7<br>
ID : 9<br>
Format : UTF-8<br>
Codec ID : S_TEXT/UTF8<br>
Codec ID/Info : UTF-8 Plain Text<br>
Duration : 1 h 45 min<br>
Bit rate : 45 b/s<br>
Frame rate : 0.121 FPS<br>
Count of elements : 771<br>
Stream size : 35.5 KiB (0%)<br>
Title : Latin American<br>
Language : Spanish (Latin America)<br>
Default : No<br>
Forced : No<br>
<br>
Text #8<br>
ID : 10<br>
Format : UTF-8<br>
Codec ID : S_TEXT/UTF8<br>
Codec ID/Info : UTF-8 Plain Text<br>
Duration : 1 h 45 min<br>
Bit rate : 42 b/s<br>
Frame rate : 0.128 FPS<br>
Count of elements : 814<br>
Stream size : 33.0 KiB (0%)<br>
Language : Spanish (ES)<br>
Default : No<br>
Forced : No<br>
<br>
Text #9<br>
ID : 11<br>
Format : UTF-8<br>
Codec ID : S_TEXT/UTF8<br>
Codec ID/Info : UTF-8 Plain Text<br>
Duration : 1 h 45 min<br>
Bit rate : 43 b/s<br>
Frame rate : 0.129 FPS<br>
Count of elements : 818<br>
Stream size : 33.8 KiB (0%)<br>
Language : Finnish<br>
Default : No<br>
Forced : No<br>
<br>
Text #10<br>
ID : 12<br>
Format : UTF-8<br>
Codec ID : S_TEXT/UTF8<br>
Codec ID/Info : UTF-8 Plain Text<br>
Duration : 1 h 45 min<br>
Bit rate : 43 b/s<br>
Frame rate : 0.128 FPS<br>
Count of elements : 815<br>
Stream size : 33.8 KiB (0%)<br>
Language : French (FR)<br>
Default : No<br>
Forced : No<br>
<br>
Text #11<br>
ID : 13<br>
Format : UTF-8<br>
Codec ID : S_TEXT/UTF8<br>
Codec ID/Info : UTF-8 Plain Text<br>
Duration : 1 h 45 min<br>
Bit rate : 44 b/s<br>
Frame rate : 0.129 FPS<br>
Count of elements : 818<br>
Stream size : 34.7 KiB (0%)<br>
Language : Hungarian<br>
Default : No<br>
Forced : No<br>
<br>
Text #12<br>
ID : 14<br>
Format : UTF-8<br>
Codec ID : S_TEXT/UTF8<br>
Codec ID/Info : UTF-8 Plain Text<br>
Duration : 1 h 45 min<br>
Bit rate : 39 b/s<br>
Frame rate : 0.120 FPS<br>
Count of elements : 762<br>
Stream size : 30.2 KiB (0%)<br>
Language : Italian<br>
Default : No<br>
Forced : No<br>
<br>
Text #13<br>
ID : 15<br>
Format : UTF-8<br>
Codec ID : S_TEXT/UTF8<br>
Codec ID/Info : UTF-8 Plain Text<br>
Duration : 1 h 46 min<br>
Bit rate : 37 b/s<br>
Frame rate : 0.100 FPS<br>
Count of elements : 639<br>
Stream size : 29.1 KiB (0%)<br>
Language : Japanese<br>
Default : No<br>
Forced : No<br>
<br>
Text #14<br>
ID : 16<br>
Format : UTF-8<br>
Codec ID : S_TEXT/UTF8<br>
Codec ID/Info : UTF-8 Plain Text<br>
Duration : 1 h 45 min<br>
Bit rate : 51 b/s<br>
Frame rate : 0.129 FPS<br>
Count of elements : 820<br>
Stream size : 40.0 KiB (0%)<br>
Language : Korean<br>
Default : No<br>
Forced : No<br>
<br>
Text #15<br>
ID : 17<br>
Format : UTF-8<br>
Codec ID : S_TEXT/UTF8<br>
Codec ID/Info : UTF-8 Plain Text<br>
Duration : 1 h 45 min<br>
Bit rate : 42 b/s<br>
Frame rate : 0.099 FPS<br>
Count of elements : 627<br>
Stream size : 33.2 KiB (0%)<br>
Language : Dutch<br>
Default : No<br>
Forced : No<br>
<br>
Text #16<br>
ID : 18<br>
Format : UTF-8<br>
Codec ID : S_TEXT/UTF8<br>
Codec ID/Info : UTF-8 Plain Text<br>
Duration : 1 h 45 min<br>
Bit rate : 43 b/s<br>
Frame rate : 0.115 FPS<br>
Count of elements : 733<br>
Stream size : 33.9 KiB (0%)<br>
Language : Norwegian<br>
Default : No<br>
Forced : No<br>
<br>
Text #17<br>
ID : 19<br>
Format : UTF-8<br>
Codec ID : S_TEXT/UTF8<br>
Codec ID/Info : UTF-8 Plain Text<br>
Duration : 1 h 45 min<br>
Bit rate : 45 b/s<br>
Frame rate : 0.129 FPS<br>
Count of elements : 819<br>
Stream size : 35.4 KiB (0%)<br>
Language : Polish<br>
Default : No<br>
Forced : No<br>
<br>
Text #18<br>
ID : 20<br>
Format : UTF-8<br>
Codec ID : S_TEXT/UTF8<br>
Codec ID/Info : UTF-8 Plain Text<br>
Duration : 1 h 45 min<br>
Bit rate : 46 b/s<br>
Frame rate : 0.127 FPS<br>
Count of elements : 807<br>
Stream size : 35.9 KiB (0%)<br>
Title : Brazilian<br>
Language : Portuguese (BR)<br>
Default : No<br>
Forced : No<br>
<br>
Text #19<br>
ID : 21<br>
Format : UTF-8<br>
Codec ID : S_TEXT/UTF8<br>
Codec ID/Info : UTF-8 Plain Text<br>
Duration : 1 h 45 min<br>
Bit rate : 45 b/s<br>
Frame rate : 0.128 FPS<br>
Count of elements : 814<br>
Stream size : 35.6 KiB (0%)<br>
Language : Portuguese (PT)<br>
Default : No<br>
Forced : No<br>
<br>
Text #20<br>
ID : 22<br>
Format : UTF-8<br>
Codec ID : S_TEXT/UTF8<br>
Codec ID/Info : UTF-8 Plain Text<br>
Duration : 1 h 45 min<br>
Bit rate : 44 b/s<br>
Frame rate : 0.121 FPS<br>
Count of elements : 767<br>
Stream size : 34.2 KiB (0%)<br>
Language : Romanian<br>
Default : No<br>
Forced : No<br>
<br>
Text #21<br>
ID : 23<br>
Format : UTF-8<br>
Codec ID : S_TEXT/UTF8<br>
Codec ID/Info : UTF-8 Plain Text<br>
Duration : 1 h 45 min<br>
Bit rate : 41 b/s<br>
Frame rate : 0.128 FPS<br>
Count of elements : 817<br>
Stream size : 32.3 KiB (0%)<br>
Language : Slovak<br>
Default : No<br>
Forced : No<br>
<br>
Text #22<br>
ID : 24<br>
Format : UTF-8<br>
Codec ID : S_TEXT/UTF8<br>
Codec ID/Info : UTF-8 Plain Text<br>
Duration : 1 h 45 min<br>
Bit rate : 46 b/s<br>
Frame rate : 0.129 FPS<br>
Count of elements : 818<br>
Stream size : 35.8 KiB (0%)<br>
Language : Swedish<br>
Default : No<br>
Forced : No<br>
<br>
Text #23<br>
ID : 25<br>
Format : UTF-8<br>
Codec ID : S_TEXT/UTF8<br>
Codec ID/Info : UTF-8 Plain Text<br>
Duration : 1 h 45 min<br>
Bit rate : 49 b/s<br>
Frame rate : 0.129 FPS<br>
Count of elements : 819<br>
Stream size : 38.1 KiB (0%)<br>
Language : Turkish<br>
Default : No<br>
Forced : No<br>
<br>
Text #24<br>
ID : 26<br>
Format : UTF-8<br>
Codec ID : S_TEXT/UTF8<br>
Codec ID/Info : UTF-8 Plain Text<br>
Duration : 1 h 46 min<br>
Bit rate : 36 b/s<br>
Frame rate : 0.129 FPS<br>
Count of elements : 821<br>
Stream size : 28.0 KiB (0%)<br>
Title : Hong Kong<br>
Language : Chinese (HK)<br>
Default : No<br>
Forced : No<br>
<br>
Text #25<br>
ID : 27<br>
Format : UTF-8<br>
Codec ID : S_TEXT/UTF8<br>
Codec ID/Info : UTF-8 Plain Text<br>
Duration : 1 h 45 min<br>
Bit rate : 40 b/s<br>
Frame rate : 0.129 FPS<br>
Count of elements : 819<br>
Stream size : 31.5 KiB (0%)<br>
Title : Simplified<br>
Language : Chinese (Simplied)<br>
Default : No<br>
Forced : No<br>
<br>
Text #26<br>
ID : 28<br>
Format : UTF-8<br>
Codec ID : S_TEXT/UTF8<br>
Codec ID/Info : UTF-8 Plain Text<br>
Duration : 1 h 45 min<br>
Bit rate : 44 b/s<br>
Frame rate : 0.129 FPS<br>
Count of elements : 820<br>
Stream size : 34.8 KiB (0%)<br>
Title : Traditional<br>
Language : Chinese (Traditional)<br>
Default : No<br>
Forced : No<br>
<br>
Menu<br>
00:10:13.947 : en:Scene 1<br>
00:19:13.403 : en:Scene 2<br>
00:28:53.817 : en:Scene 3<br>
00:36:59.303 : en:Scene 4<br>
00:50:51.093 : en:Scene 5<br>
00:59:19.142 : en:Scene 6<br>
01:07:30.634 : en:Scene 7<br>
01:25:25.542 : en:Scene 8<br>
01:34:56.154 : en:Scene 9<br>
01:41:48.192 : en:Scene 10<br>
01:46:25.926 : en:Credits</div>
</div><br>
<br>
<div class="bbCodeBlock bbCodeVfcHH HiddenContent">
<div class="attribution type">Hidden Content:</div>
<blockquote>You must either reply or click 'Like' to see the hidden information contained here.</blockquote>
</div></div>
<div class="messageTextEndMarker">&nbsp;</div>
</blockquote>
</article>]]></description>
                <author><![CDATA[mariellisaa]]></author>
                </item>

                
                <item>
                <title><![CDATA[【HD Live Performances】WEB-DL - 5 Seconds of Summer: The Feeling of Falling Upwards Live From Royal Albert Hall (1080)]]></title>
                <link><![CDATA[https://sharemania.us/threads/5-seconds-of-summer-the-feeling-of-falling-upwards-live-from-royal-albert-hall-1080.229564/]]></link>
                <description><![CDATA[<article>
<blockquote class="messageText SelectQuoteContainer ugc baseHtml">
<div style="text-align: center"><img src="https://i.imgur.com/HNIqUlQ.gif" class="bbCodeImage LbImage" alt="[​IMG]" data-url="https://i.imgur.com/HNIqUlQ.gif" style=""><br>
<i>In September 2022, 5 Seconds of Summer played an exclusive one-off show "The Feeling of Falling Upwards" live at the world-famous Royal Albert Hall in London. The band performed a set of reimagined versions of songs from their 11-year catalogue, plus brand-new songs from their latest album 5SOS5, accompanied by an orchestra and choir.</i><br>
<br>
​</div>
<div class="ToggleTriggerAnchor bbCodeSpoilerContainer">
<button type="button" class="button bbCodeSpoilerButton ToggleTrigger Tooltip JsOnly" data-target="> .SpoilerTarget"><span>Spoiler: <span class="SpoilerTitle">AMAZON</span></span></button>
<div class="SpoilerTarget bbCodeSpoilerText">
<div class="bbCodeBlock bbCodeCode">
<div class="type">Code:</div>
<pre>Format                                   : MPEG-4
Format profile                           : Base Media
Codec ID                                 : isom (isom/dby1/iso2/avc1/mp41)
File size                                : 6.11 GiB
Duration                                 : 1 h 20 min
Overall bit rate mode                    : Variable
Overall bit rate                         : 10.8 Mb/s
Collection                               : 5 Seconds of Summer: The Feeling of Falling Upwards-Live From Royal Albert Hall
Track name                               : 5 Seconds of Summer: The Feeling of Falling Upwards-Live From Royal Albert Hall
Genre                                    : Videos musicales y conciertos
Description                              : En septiembre de 2022, 5 Seconds of Summer tocaron en vivo en un espectáculo único exclusivo "The Feeling of Falling Upwards" en el mundialmente famoso Royal Albert Hall de Londres. La banda interpretó un conjunto de versiones reinventadas de canciones de su catálogo de 11 años, además de canciones nuevas de su último álbum 5SOS5, acompañadas por una orquesta y un coro.
Recorded date                            : 2023
Writing application                      : Lavf60.3.100
Cover                                    : Yes

Video
ID                                       : 1
Format                                   : AVC
Format/Info                              : Advanced Video Codec
Format profile                           : High@L4
Format settings                          : CABAC / 4 Ref Frames
Format settings, CABAC                   : Yes
Format settings, Reference frames        : 4 frames
Codec ID                                 : avc1
Codec ID/Info                            : Advanced Video Coding
Duration                                 : 1 h 20 min
Duration_LastFrame                       : -30 ms
Bit rate                                 : 10.2 Mb/s
Width                                    : 1 920 pixels
Height                                   : 800 pixels
Display aspect ratio                     : 2.40:1
Frame rate mode                          : Constant
Frame rate                               : 25.000 FPS
Color space                              : YUV
Chroma subsampling                       : 4:2:0
Bit depth                                : 8 bits
Scan type                                : Progressive
Bits/(Pixel*Frame)                       : 0.265
Stream size                              : 5.75 GiB (94%)
Color range                              : Limited
Color primaries                          : BT.709
Transfer characteristics                 : BT.709
Matrix coefficients                      : BT.709
Codec configuration box                  : avcC

Audio
ID                                       : 3
Format                                   : E-AC-3
Format/Info                              : Enhanced AC-3
Commercial name                          : Dolby Digital Plus
Codec ID                                 : ec-3
Duration                                 : 1 h 20 min
Bit rate mode                            : Constant
Bit rate                                 : 640 kb/s
Channel(s)                               : 6 channels
Channel layout                           : L R C LFE Ls Rs
Sampling rate                            : 48.0 kHz
Frame rate                               : 31.250 FPS (1536 SPF)
Compression mode                         : Lossy
Stream size                              : 370 MiB (6%)
Language                                 : English
Service kind                             : Complete Main
Default                                  : Yes
Alternate group                          : 1

Text #1
ID                                       : 4
Format                                   : Timed Text
Muxing mode                              : sbtl
Codec ID                                 : tx3g
Duration                                 : 1 h 19 min
Bit rate mode                            : Variable
Bit rate                                 : 67 b/s
Stream size                              : 39.2 KiB (0%)
Title                                    : Deutsch [UT]
Language                                 : German
Default                                  : Yes
Forced                                   : No
Alternate group                          : 3

Text #2
ID                                       : 5
Format                                   : Timed Text
Muxing mode                              : sbtl
Codec ID                                 : tx3g
Duration                                 : 1 h 19 min
Bit rate mode                            : Variable
Bit rate                                 : 64 b/s
Stream size                              : 37.6 KiB (0%)
Title                                    : English [CC]
Language                                 : English
Default                                  : No
Forced                                   : No
Alternate group                          : 3

Text #3
ID                                       : 6
Format                                   : Timed Text
Muxing mode                              : sbtl
Codec ID                                 : tx3g
Duration                                 : 1 h 19 min
Bit rate mode                            : Variable
Bit rate                                 : 61 b/s
Stream size                              : 35.9 KiB (0%)
Title                                    : Español [CC]
Language                                 : Spanish
Default                                  : No
Forced                                   : No
Alternate group                          : 3

Text #4
ID                                       : 7
Format                                   : Timed Text
Muxing mode                              : sbtl
Codec ID                                 : tx3g
Duration                                 : 1 h 19 min
Bit rate mode                            : Variable
Bit rate                                 : 68 b/s
Stream size                              : 39.5 KiB (0%)
Title                                    : Français (Canada) [CC]
Language                                 : French
Default                                  : No
Forced                                   : No
Alternate group                          : 3

Text #5
ID                                       : 8
Format                                   : Timed Text
Muxing mode                              : sbtl
Codec ID                                 : tx3g
Duration                                 : 1 h 19 min
Bit rate mode                            : Variable
Bit rate                                 : 68 b/s
Stream size                              : 39.5 KiB (0%)
Title                                    : Français (France) [CC]
Language                                 : French
Default                                  : No
Forced                                   : No
Alternate group                          : 3

Text #6
ID                                       : 9
Format                                   : Timed Text
Muxing mode                              : sbtl
Codec ID                                 : tx3g
Duration                                 : 1 h 19 min
Bit rate mode                            : Variable
Bit rate                                 : 61 b/s
Stream size                              : 35.6 KiB (0%)
Title                                    : Português [SDH]
Language                                 : Portuguese
Default                                  : No
Forced                                   : No
Alternate group                          : 3</pre>
</div><div style="text-align: center">​</div></div>
</div><div style="text-align: center"><br>
<br>
<div class="bbCodeBlock bbCodeVfcHH HiddenContent">
<div class="attribution type">Hidden Content:</div>
<blockquote>You must reply before you can see the hidden data contained here.</blockquote>
</div><img src="https://i.imgur.com/tB4jj6p.png" class="bbCodeImage LbImage" alt="[​IMG]" data-url="https://i.imgur.com/tB4jj6p.png" style="">​</div>
<div class="messageTextEndMarker">&nbsp;</div>
</blockquote>
</article>]]></description>
                <author><![CDATA[fstambuk]]></author>
                </item>

                </channel></rss>